<?xml version="1.0" encoding="UTF-8" standalone="no"?><svg xmlns="http://www.w3.org/2000/svg" xmlns:xlink="http://www.w3.org/1999/xlink" contentStyleType="text/css" height="515px" preserveAspectRatio="none" style="width:1137px;height:515px;background:#FFFFFF;" version="1.1" viewBox="0 0 1137 515" width="1137px" zoomAndPan="magnify"><defs/><g><!--MD5=[5a8cf97a11d0475fdd99e76a590d1a34]
class MobileAlertState--><g id="elem_MobileAlertState"><rect codeLine="1" fill="#F1F1F1" height="64.2969" id="MobileAlertState" rx="2.5" ry="2.5" style="stroke:#181818;stroke-width:0.5;" width="311" x="413" y="304"/><ellipse cx="508.25" cy="320" fill="#B4A7E5" rx="11" ry="11" style="stroke:#181818;stroke-width:1.0;"/><path d="M504.1719,315.7656 L504.1719,313.6094 L511.5625,313.6094 L511.5625,315.7656 L509.0938,315.7656 L509.0938,323.8438 L511.5625,323.8438 L511.5625,326 L504.1719,326 L504.1719,323.8438 L506.6406,323.8438 L506.6406,315.7656 L504.1719,315.7656 Z " fill="#000000"/><text fill="#000000" font-family="sans-serif" font-size="14" font-style="italic" lengthAdjust="spacing" textLength="112" x="528.75" y="324.8467">MobileAlertState</text><line style="stroke:#181818;stroke-width:0.5;" x1="414" x2="723" y1="336" y2="336"/><line style="stroke:#181818;stroke-width:0.5;" x1="414" x2="723" y1="344" y2="344"/><text fill="#000000" font-family="sans-serif" font-size="14" lengthAdjust="spacing" textLength="299" x="419" y="360.9951">void alert(MobileAlertStateContext context);</text></g><!--MD5=[7e480b66afb1387efaedb19978df7581]
class Silent--><g id="elem_Silent"><rect codeLine="5" fill="#F1F1F1" height="80.5938" id="Silent" rx="2.5" ry="2.5" style="stroke:#181818;stroke-width:0.5;" width="351" x="7" y="428"/><ellipse cx="159.25" cy="444" fill="#ADD1B2" rx="11" ry="11" style="stroke:#181818;stroke-width:1.0;"/><path d="M162.2188,449.6406 Q161.6406,449.9375 161,450.0781 Q160.3594,450.2344 159.6563,450.2344 Q157.1563,450.2344 155.8281,448.5938 Q154.5156,446.9375 154.5156,443.8125 Q154.5156,440.6875 155.8281,439.0313 Q157.1563,437.375 159.6563,437.375 Q160.3594,437.375 161,437.5313 Q161.6563,437.6875 162.2188,437.9844 L162.2188,440.7031 Q161.5938,440.125 161,439.8594 Q160.4063,439.5781 159.7813,439.5781 Q158.4375,439.5781 157.75,440.6563 Q157.0625,441.7188 157.0625,443.8125 Q157.0625,445.9063 157.75,446.9844 Q158.4375,448.0469 159.7813,448.0469 Q160.4063,448.0469 161,447.7813 Q161.5938,447.5 162.2188,446.9219 L162.2188,449.6406 Z " fill="#000000"/><text fill="#000000" font-family="sans-serif" font-size="14" lengthAdjust="spacing" textLength="38" x="179.75" y="448.8467">Silent</text><line style="stroke:#181818;stroke-width:0.5;" x1="8" x2="357" y1="460" y2="460"/><text fill="#000000" font-family="sans-serif" font-size="14" lengthAdjust="spacing" textLength="72" x="13" y="476.9951">@Override</text><line style="stroke:#181818;stroke-width:0.5;" x1="8" x2="357" y1="484.2969" y2="484.2969"/><text fill="#000000" font-family="sans-serif" font-size="14" lengthAdjust="spacing" textLength="339" x="13" y="501.292">public void alert(MobileAlertStateContext context)</text></g><!--MD5=[b47f00dd0504bda501cad5ceb6604e40]
class Sound--><g id="elem_Sound"><rect codeLine="10" fill="#F1F1F1" height="80.5938" id="Sound" rx="2.5" ry="2.5" style="stroke:#181818;stroke-width:0.5;" width="351" x="393" y="428"/><ellipse cx="541.75" cy="444" fill="#ADD1B2" rx="11" ry="11" style="stroke:#181818;stroke-width:1.0;"/><path d="M544.7188,449.6406 Q544.1406,449.9375 543.5,450.0781 Q542.8594,450.2344 542.1563,450.2344 Q539.6563,450.2344 538.3281,448.5938 Q537.0156,446.9375 537.0156,443.8125 Q537.0156,440.6875 538.3281,439.0313 Q539.6563,437.375 542.1563,437.375 Q542.8594,437.375 543.5,437.5313 Q544.1563,437.6875 544.7188,437.9844 L544.7188,440.7031 Q544.0938,440.125 543.5,439.8594 Q542.9063,439.5781 542.2813,439.5781 Q540.9375,439.5781 540.25,440.6563 Q539.5625,441.7188 539.5625,443.8125 Q539.5625,445.9063 540.25,446.9844 Q540.9375,448.0469 542.2813,448.0469 Q542.9063,448.0469 543.5,447.7813 Q544.0938,447.5 544.7188,446.9219 L544.7188,449.6406 Z " fill="#000000"/><text fill="#000000" font-family="sans-serif" font-size="14" lengthAdjust="spacing" textLength="45" x="562.25" y="448.8467">Sound</text><line style="stroke:#181818;stroke-width:0.5;" x1="394" x2="743" y1="460" y2="460"/><text fill="#000000" font-family="sans-serif" font-size="14" lengthAdjust="spacing" textLength="72" x="399" y="476.9951">@Override</text><line style="stroke:#181818;stroke-width:0.5;" x1="394" x2="743" y1="484.2969" y2="484.2969"/><text fill="#000000" font-family="sans-serif" font-size="14" lengthAdjust="spacing" textLength="339" x="399" y="501.292">public void alert(MobileAlertStateContext context)</text></g><!--MD5=[c5c84db9ce022d2305791f7cabf2c82c]
class Vibration--><g id="elem_Vibration"><rect codeLine="15" fill="#F1F1F1" height="80.5938" id="Vibration" rx="2.5" ry="2.5" style="stroke:#181818;stroke-width:0.5;" width="351" x="779" y="428"/><ellipse cx="920.25" cy="444" fill="#ADD1B2" rx="11" ry="11" style="stroke:#181818;stroke-width:1.0;"/><path d="M923.2188,449.6406 Q922.6406,449.9375 922,450.0781 Q921.3594,450.2344 920.6563,450.2344 Q918.1563,450.2344 916.8281,448.5938 Q915.5156,446.9375 915.5156,443.8125 Q915.5156,440.6875 916.8281,439.0313 Q918.1563,437.375 920.6563,437.375 Q921.3594,437.375 922,437.5313 Q922.6563,437.6875 923.2188,437.9844 L923.2188,440.7031 Q922.5938,440.125 922,439.8594 Q921.4063,439.5781 920.7813,439.5781 Q919.4375,439.5781 918.75,440.6563 Q918.0625,441.7188 918.0625,443.8125 Q918.0625,445.9063 918.75,446.9844 Q919.4375,448.0469 920.7813,448.0469 Q921.4063,448.0469 922,447.7813 Q922.5938,447.5 923.2188,446.9219 L923.2188,449.6406 Z " fill="#000000"/><text fill="#000000" font-family="sans-serif" font-size="14" lengthAdjust="spacing" textLength="60" x="940.75" y="448.8467">Vibration</text><line style="stroke:#181818;stroke-width:0.5;" x1="780" x2="1129" y1="460" y2="460"/><text fill="#000000" font-family="sans-serif" font-size="14" lengthAdjust="spacing" textLength="72" x="785" y="476.9951">@Override</text><line style="stroke:#181818;stroke-width:0.5;" x1="780" x2="1129" y1="484.2969" y2="484.2969"/><text fill="#000000" font-family="sans-serif" font-size="14" lengthAdjust="spacing" textLength="339" x="785" y="501.292">public void alert(MobileAlertStateContext context)</text></g><!--MD5=[181ed729665bfb81499280fdd8894057]
class MobileAlertStateContext--><g id="elem_MobileAlertStateContext"><rect codeLine="20" fill="#F1F1F1" height="129.4844" id="MobileAlertStateContext" rx="2.5" ry="2.5" style="stroke:#181818;stroke-width:0.5;" width="308" x="414.5" y="115"/><ellipse cx="481.25" cy="131" fill="#ADD1B2" rx="11" ry="11" style="stroke:#181818;stroke-width:1.0;"/><path d="M484.2188,136.6406 Q483.6406,136.9375 483,137.0781 Q482.3594,137.2344 481.6563,137.2344 Q479.1563,137.2344 477.8281,135.5938 Q476.5156,133.9375 476.5156,130.8125 Q476.5156,127.6875 477.8281,126.0313 Q479.1563,124.375 481.6563,124.375 Q482.3594,124.375 483,124.5313 Q483.6563,124.6875 484.2188,124.9844 L484.2188,127.7031 Q483.5938,127.125 483,126.8594 Q482.4063,126.5781 481.7813,126.5781 Q480.4375,126.5781 479.75,127.6563 Q479.0625,128.7188 479.0625,130.8125 Q479.0625,132.9063 479.75,133.9844 Q480.4375,135.0469 481.7813,135.0469 Q482.4063,135.0469 483,134.7813 Q483.5938,134.5 484.2188,133.9219 L484.2188,136.6406 Z " fill="#000000"/><text fill="#000000" font-family="sans-serif" font-size="14" lengthAdjust="spacing" textLength="166" x="501.75" y="135.8467">MobileAlertStateContext</text><line style="stroke:#181818;stroke-width:0.5;" x1="415.5" x2="721.5" y1="147" y2="147"/><text fill="#000000" font-family="sans-serif" font-size="14" lengthAdjust="spacing" textLength="257" x="420.5" y="163.9951">private MobileAlertState currentState;</text><line style="stroke:#181818;stroke-width:0.5;" x1="415.5" x2="721.5" y1="171.2969" y2="171.2969"/><text fill="#000000" font-family="sans-serif" font-size="14" lengthAdjust="spacing" textLength="221" x="420.5" y="188.292">public MobileAlertStateContext()</text><text fill="#000000" font-family="sans-serif" font-size="14" lengthAdjust="spacing" textLength="4" x="420.5" y="204.5889"> </text><text fill="#000000" font-family="sans-serif" font-size="14" lengthAdjust="spacing" textLength="296" x="420.5" y="220.8857">public void setState(MobileAlertState state)</text><text fill="#000000" font-family="sans-serif" font-size="14" lengthAdjust="spacing" textLength="117" x="420.5" y="237.1826">public void alert()</text></g><!--MD5=[ed6624c6556d5e7b1bd23032162d20b7]
class Client--><g id="elem_Client"><rect fill="#F1F1F1" height="48" id="Client" rx="2.5" ry="2.5" style="stroke:#181818;stroke-width:0.5;" width="71" x="533" y="7"/><ellipse cx="548" cy="23" fill="#ADD1B2" rx="11" ry="11" style="stroke:#181818;stroke-width:1.0;"/><path d="M550.9688,28.6406 Q550.3906,28.9375 549.75,29.0781 Q549.1094,29.2344 548.4063,29.2344 Q545.9063,29.2344 544.5781,27.5938 Q543.2656,25.9375 543.2656,22.8125 Q543.2656,19.6875 544.5781,18.0313 Q545.9063,16.375 548.4063,16.375 Q549.1094,16.375 549.75,16.5313 Q550.4063,16.6875 550.9688,16.9844 L550.9688,19.7031 Q550.3438,19.125 549.75,18.8594 Q549.1563,18.5781 548.5313,18.5781 Q547.1875,18.5781 546.5,19.6563 Q545.8125,20.7188 545.8125,22.8125 Q545.8125,24.9063 546.5,25.9844 Q547.1875,27.0469 548.5313,27.0469 Q549.1563,27.0469 549.75,26.7813 Q550.3438,26.5 550.9688,25.9219 L550.9688,28.6406 Z " fill="#000000"/><text fill="#000000" font-family="sans-serif" font-size="14" lengthAdjust="spacing" textLength="39" x="562" y="27.8467">Client</text><line style="stroke:#181818;stroke-width:0.5;" x1="534" x2="603" y1="39" y2="39"/><line style="stroke:#181818;stroke-width:0.5;" x1="534" x2="603" y1="47" y2="47"/></g><!--MD5=[14d9432f00662b227dd31b6f9ecab0e8]
reverse link MobileAlertState to Silent--><g id="link_MobileAlertState_Silent"><path d="M457.33,374.58 C407.84,391.32 349.54,411.03 299.4,427.98 " fill="none" id="MobileAlertState-backto-Silent" style="stroke:#181818;stroke-width:1.0;stroke-dasharray:7.0,7.0;"/><polygon fill="none" points="455.35,367.87,476.53,368.09,459.83,381.13,455.35,367.87" style="stroke:#181818;stroke-width:1.0;"/></g><!--MD5=[03be2585aeac2168a8e25b3686e13dcc]
reverse link MobileAlertState to Sound--><g id="link_MobileAlertState_Sound"><path d="M568.5,388.41 C568.5,401.43 568.5,415.23 568.5,427.59 " fill="none" id="MobileAlertState-backto-Sound" style="stroke:#181818;stroke-width:1.0;stroke-dasharray:7.0,7.0;"/><polygon fill="none" points="561.5,388.26,568.5,368.26,575.5,388.26,561.5,388.26" style="stroke:#181818;stroke-width:1.0;"/></g><!--MD5=[a221e1ced5490885173da44447865940]
reverse link MobileAlertState to Vibration--><g id="link_MobileAlertState_Vibration"><path d="M679.67,374.58 C729.16,391.32 787.46,411.03 837.6,427.98 " fill="none" id="MobileAlertState-backto-Vibration" style="stroke:#181818;stroke-width:1.0;stroke-dasharray:7.0,7.0;"/><polygon fill="none" points="677.17,381.13,660.47,368.09,681.65,367.87,677.17,381.13" style="stroke:#181818;stroke-width:1.0;"/></g><!--MD5=[68cb3de49dd0ce940d40e74d73820dfd]
link MobileAlertStateContext to MobileAlertState--><g id="link_MobileAlertStateContext_MobileAlertState"><path codeLine="32" d="M568.5,244.23 C568.5,262.75 568.5,282.34 568.5,298.57 " fill="none" id="MobileAlertStateContext-to-MobileAlertState" style="stroke:#181818;stroke-width:1.0;"/><polygon fill="#181818" points="568.5,303.93,572.5,294.93,568.5,298.93,564.5,294.93,568.5,303.93" style="stroke:#181818;stroke-width:1.0;"/></g><!--MD5=[c7fb36257f1f6af1697bd2685d7539a6]
link Client to MobileAlertStateContext--><g id="link_Client_MobileAlertStateContext"><path codeLine="33" d="M568.5,55.21 C568.5,70.03 568.5,90.07 568.5,109.68 " fill="none" id="Client-to-MobileAlertStateContext" style="stroke:#181818;stroke-width:1.0;"/><polygon fill="#181818" points="568.5,114.93,572.5,105.93,568.5,109.93,564.5,105.93,568.5,114.93" style="stroke:#181818;stroke-width:1.0;"/></g><!--MD5=[bc7bc060f654ebfa15c51901cf6e63e4]
@startuml
interface MobileAlertState {
    void alert(MobileAlertStateContext context);
}

class Silent implements MobileAlertState{
    @Override
    public void alert(MobileAlertStateContext context)
}

class Sound implements MobileAlertState{
    @Override
    public void alert(MobileAlertStateContext context)
}

class Vibration implements MobileAlertState{
    @Override
    public void alert(MobileAlertStateContext context)
}

class MobileAlertStateContext {
    private MobileAlertState currentState;

    public MobileAlertStateContext()

    public void setState(MobileAlertState state) 
    

    public void alert()
  
}

MobileAlertStateContext - -> MobileAlertState
Client  - -> MobileAlertStateContext
@enduml

PlantUML version 1.2022.7(Mon Aug 22 17:01:30 UTC 2022)
(GPL source distribution)
Java Runtime: OpenJDK Runtime Environment
JVM: OpenJDK 64-Bit Server VM
Default Encoding: UTF-8
Language: en
Country: null
--></g></svg>